<svg width="20" height="20" viewBox="0 0 20 20" fill="none" xmlns="http://www.w3.org/2000/svg">
<path d="M4.01 14.136L2.141 2H1C0.734784 2 0.48043 1.89464 0.292893 1.70711C0.105357 1.51957 0 1.26522 0 1C0 0.734785 0.105357 0.480431 0.292893 0.292895C0.48043 0.105358 0.734784 1.48146e-06 1 1.48146e-06H2.985C3.22624 -0.00445226 3.46086 0.0790841 3.645 0.235001C3.834 0.393938 3.9573 0.617363 3.991 0.862001L4.319 3H12V5H4.627L5.857 13H15.256L16.756 8H18.844L16.958 14.287C16.8963 14.4931 16.7697 14.6738 16.5971 14.8022C16.4245 14.9307 16.2151 15 16 15H5.016C4.76792 15.0046 4.52711 14.9161 4.341 14.752C4.15961 14.5935 4.04169 14.3747 4.009 14.136H4.01ZM8 18C8 18.5304 7.78929 19.0391 7.41421 19.4142C7.03914 19.7893 6.53043 20 6 20C5.46957 20 4.96086 19.7893 4.58579 19.4142C4.21071 19.0391 4 18.5304 4 18C4 17.4696 4.21071 16.9609 4.58579 16.5858C4.96086 16.2107 5.46957 16 6 16C6.53043 16 7.03914 16.2107 7.41421 16.5858C7.78929 16.9609 8 17.4696 8 18V18ZM17 18C17 18.5304 16.7893 19.0391 16.4142 19.4142C16.0391 19.7893 15.5304 20 15 20C14.4696 20 13.9609 19.7893 13.5858 19.4142C13.2107 19.0391 13 18.5304 13 18C13 17.4696 13.2107 16.9609 13.5858 16.5858C13.9609 16.2107 14.4696 16 15 16C15.5304 16 16.0391 16.2107 16.4142 16.5858C16.7893 16.9609 17 17.4696 17 18V18ZM17 1.48146e-06C17.2652 1.48146e-06 17.5196 0.105358 17.7071 0.292895C17.8946 0.480431 18 0.734785 18 1V2H19C19.2652 2 19.5196 2.10536 19.7071 2.29289C19.8946 2.48043 20 2.73478 20 3C20 3.26522 19.8946 3.51957 19.7071 3.70711C19.5196 3.89464 19.2652 4 19 4H18V5C18 5.26522 17.8946 5.51957 17.7071 5.70711C17.5196 5.89464 17.2652 6 17 6C16.7348 6 16.4804 5.89464 16.2929 5.70711C16.1054 5.51957 16 5.26522 16 5V4H15C14.7348 4 14.4804 3.89464 14.2929 3.70711C14.1054 3.51957 14 3.26522 14 3C14 2.73478 14.1054 2.48043 14.2929 2.29289C14.4804 2.10536 14.7348 2 15 2H16V1C16 0.734785 16.1054 0.480431 16.2929 0.292895C16.4804 0.105358 16.7348 1.48146e-06 17 1.48146e-06Z" fill="#333"/>
</svg>
