<svg width="20" height="19" viewBox="0 0 20 19" fill="none" xmlns="http://www.w3.org/2000/svg">
<path fill-rule="evenodd" clip-rule="evenodd" d="M1 0C0.734784 0 0.48043 0.105357 0.292893 0.292893C0.105357 0.48043 0 0.734784 0 1C0 1.26522 0.105357 1.51957 0.292893 1.70711C0.48043 1.89464 0.734784 2 1 2H2.72L3.024 3.22L5.019 13.196C5.06433 13.4228 5.18686 13.6268 5.36572 13.7734C5.54459 13.92 5.76874 14.0001 6 14H17C17.2311 13.9999 17.455 13.9197 17.6337 13.7731C17.8123 13.6265 17.9347 13.4226 17.98 13.196L19.98 3.196C20.009 3.05098 20.0054 2.90133 19.9696 2.75784C19.9338 2.61435 19.8666 2.48059 19.7729 2.3662C19.6792 2.25181 19.5612 2.15963 19.4276 2.0963C19.2939 2.03298 19.1479 2.00009 19 2H4.78L4.47 0.757C4.41583 0.540753 4.29095 0.348809 4.11521 0.211655C3.93946 0.0745022 3.72293 5.86043e-06 3.5 0H1ZM15 15C14.4696 15 13.9609 15.2107 13.5858 15.5858C13.2107 15.9609 13 16.4696 13 17C13 17.5304 13.2107 18.0391 13.5858 18.4142C13.9609 18.7893 14.4696 19 15 19C15.5304 19 16.0391 18.7893 16.4142 18.4142C16.7893 18.0391 17 17.5304 17 17C17 16.4696 16.7893 15.9609 16.4142 15.5858C16.0391 15.2107 15.5304 15 15 15V15ZM8 15C7.46957 15 6.96086 15.2107 6.58579 15.5858C6.21071 15.9609 6 16.4696 6 17C6 17.5304 6.21071 18.0391 6.58579 18.4142C6.96086 18.7893 7.46957 19 8 19C8.53043 19 9.03914 18.7893 9.41421 18.4142C9.78929 18.0391 10 17.5304 10 17C10 16.4696 9.78929 15.9609 9.41421 15.5858C9.03914 15.2107 8.53043 15 8 15Z" fill="#333"/>
</svg>
